<svg xmlns="http://www.w3.org/2000/svg" xmlns:xlink="http://www.w3.org/1999/xlink" width="250" zoomAndPan="magnify" viewBox="0 0 187.5 74.999997" height="100" preserveAspectRatio="xMidYMid meet" version="1.0"><defs><g/></defs><g fill="#000000" fill-opacity="1"><g transform="translate(-0.00000000000002126, 58.241146)"><g><path d="M 11.4375 0.40625 C 8.320312 0.40625 5.957031 -0.457031 4.34375 -2.1875 C 2.738281 -3.914062 1.9375 -6.492188 1.9375 -9.921875 L 1.9375 -41.75 L 7.21875 -41.75 L 7.21875 -9.515625 C 7.21875 -7.785156 7.585938 -6.503906 8.328125 -5.671875 C 9.078125 -4.835938 10.113281 -4.421875 11.4375 -4.421875 C 12.726562 -4.421875 13.742188 -4.835938 14.484375 -5.671875 C 15.234375 -6.503906 15.609375 -7.785156 15.609375 -9.515625 L 15.609375 -41.75 L 20.953125 -41.75 L 20.953125 -9.859375 C 20.953125 -6.472656 20.140625 -3.914062 18.515625 -2.1875 C 16.890625 -0.457031 14.53125 0.40625 11.4375 0.40625 Z M 11.4375 0.40625 "/></g></g></g><g fill="#000000" fill-opacity="1"><g transform="translate(22.888756, 58.241146)"><g><path d="M 2.140625 -41.75 L 6.765625 -41.75 L 16.421875 -13.21875 L 16.734375 -13.21875 L 16.28125 -41.75 L 21.265625 -41.75 L 21.265625 0 L 16.53125 0 L 6.96875 -28.4375 L 6.65625 -28.4375 L 7.125 0 L 2.140625 0 Z M 2.140625 -41.75 "/></g></g></g><g fill="#000000" fill-opacity="1"><g transform="translate(46.286164, 58.241146)"><g><path d="M 2.140625 -41.75 L 7.375 -41.75 L 7.375 0 L 2.140625 0 Z M 2.140625 -41.75 "/></g></g></g><g fill="#000000" fill-opacity="1"><g transform="translate(55.797721, 58.241146)"><g><path d="M 6.859375 -37.125 L 0.8125 -37.125 L 0.8125 -41.75 L 18.109375 -41.75 L 18.109375 -37.125 L 12.046875 -37.125 L 12.046875 0 L 6.859375 0 Z M 6.859375 -37.125 "/></g></g></g><g fill="#000000" fill-opacity="1"><g transform="translate(74.719096, 58.241146)"><g><path d="M 7.578125 -15.46875 L -0.15625 -41.75 L 5.59375 -41.75 L 10.015625 -21.96875 L 10.328125 -21.96875 L 14.75 -41.75 L 20.5 -41.75 L 12.765625 -15.515625 L 12.765625 0 L 7.578125 0 Z M 7.578125 -15.46875 "/></g></g></g><g fill="#000000" fill-opacity="1"><g transform="translate(95.06467, 58.241146)"><g/></g></g><g fill="#000000" fill-opacity="1"><g transform="translate(102.694255, 58.241146)"><g><path d="M 10.984375 0.40625 C 9.085938 0.40625 7.441406 -0.015625 6.046875 -0.859375 C 4.660156 -1.710938 3.601562 -2.914062 2.875 -4.46875 C 2.144531 -6.03125 1.78125 -7.847656 1.78125 -9.921875 L 1.78125 -31.890625 C 1.78125 -33.953125 2.144531 -35.753906 2.875 -37.296875 C 3.601562 -38.847656 4.660156 -40.046875 6.046875 -40.890625 C 7.441406 -41.734375 9.101562 -42.15625 11.03125 -42.15625 C 12.894531 -42.15625 14.488281 -41.753906 15.8125 -40.953125 C 17.132812 -40.160156 18.132812 -39.035156 18.8125 -37.578125 C 19.488281 -36.117188 19.828125 -34.410156 19.828125 -32.453125 L 19.828125 -28.078125 L 14.796875 -28.078125 L 14.796875 -32.5 C 14.796875 -34.0625 14.445312 -35.253906 13.75 -36.078125 C 13.0625 -36.910156 12.15625 -37.328125 11.03125 -37.328125 C 9.8125 -37.328125 8.851562 -36.878906 8.15625 -35.984375 C 7.46875 -35.085938 7.125 -33.804688 7.125 -32.140625 L 7.125 -9.609375 C 7.125 -7.910156 7.460938 -6.617188 8.140625 -5.734375 C 8.816406 -4.859375 9.765625 -4.421875 10.984375 -4.421875 C 12.140625 -4.421875 13.0625 -4.851562 13.75 -5.71875 C 14.445312 -6.582031 14.796875 -7.796875 14.796875 -9.359375 L 14.796875 -13.6875 L 19.828125 -13.6875 L 19.828125 -9.40625 C 19.828125 -7.476562 19.476562 -5.773438 18.78125 -4.296875 C 18.09375 -2.816406 17.085938 -1.660156 15.765625 -0.828125 C 14.441406 -0.00390625 12.847656 0.40625 10.984375 0.40625 Z M 10.984375 0.40625 "/></g></g></g><g fill="#000000" fill-opacity="1"><g transform="translate(124.057094, 58.241146)"><g><path d="M 20.296875 -41.75 L 20.296875 0 L 15.15625 0 L 15.15625 -19.171875 L 7.265625 -19.171875 L 7.265625 0 L 2.140625 0 L 2.140625 -41.75 L 7.265625 -41.75 L 7.265625 -23.703125 L 15.15625 -23.703125 L 15.15625 -41.75 Z M 20.296875 -41.75 "/></g></g></g><g fill="#000000" fill-opacity="1"><g transform="translate(146.488077, 58.241146)"><g><path d="M 14.34375 -11.34375 L 7.21875 -11.34375 L 5.5 0 L 0.40625 0 L 7.890625 -41.8125 L 13.6875 -41.8125 L 21.15625 0 L 16.078125 0 Z M 13.625 -15.921875 L 10.9375 -33.421875 L 10.625 -33.421875 L 7.9375 -15.921875 Z M 13.625 -15.921875 "/></g></g></g><g fill="#000000" fill-opacity="1"><g transform="translate(168.054372, 58.241146)"><g><path d="M 6.859375 -37.125 L 0.8125 -37.125 L 0.8125 -41.75 L 18.109375 -41.75 L 18.109375 -37.125 L 12.046875 -37.125 L 12.046875 0 L 6.859375 0 Z M 6.859375 -37.125 "/></g></g></g></svg>